<?xml version="1.0" encoding="UTF-8"?>
<!-- Generator: Adobe Illustrator 16.0.0, SVG Export Plug-In . SVG Version: 6.00 Build 0)  -->
<!DOCTYPE svg PUBLIC "-//W3C//DTD SVG 1.1//EN" "http://www.w3.org/Graphics/SVG/1.1/DTD/svg11.dtd">
<svg version="1.1" id="Layer_1" xmlns="http://www.w3.org/2000/svg" xmlns:xlink="http://www.w3.org/1999/xlink" x="0px" y="0px" width="266px" height="100px" viewBox="0 0 266 100" enable-background="new 0 0 266 100" xml:space="preserve">
<g>
	<g>
		<rect fill="#3B5998" width="265.999" height="100"/>
	</g>
	<g>
		<path fill-rule="evenodd" clip-rule="evenodd" fill="#FFFFFF" d="M143.88,42.839c-3.287-0.351-6.131,0.645-8.535,3.536v-0.899l0,0    V29.87v-0.172v-1.054l-8.705,1.054v41.04h8.705v-2.436c1.174,0.838,2.316,1.847,3.652,2.325c5.072,1.818,11.76,0.336,14.1-6.448    c1.502-4.352,1.463-8.814,0.332-13.215C152.175,46.075,148.921,43.376,143.88,42.839z M145.181,60.613    c-0.383,2.706-2.537,4.124-5.094,3.925c-0.639-0.05-1.217-0.181-1.736-0.384c-2.061-1.183-2.684-3.164-2.865-4.408    c-0.002,0.001-0.004,0.001-0.004,0.002c-0.141-1.925-0.293-5.95,0.646-7.852c0.797-1.458,2.188-2.252,4.033-2.313    c2.621-0.086,4.604,1.214,4.994,3.874C145.501,55.801,145.517,58.271,145.181,60.613z"/>
		<path fill-rule="evenodd" clip-rule="evenodd" fill="#FFFFFF" d="M174.731,43.346c-3.025-0.809-6.08-0.799-9.098,0.005    c-4.52,1.203-7.549,4.063-8.525,8.612c-0.533,2.482-0.639,5.121-0.498,7.666c0.322,5.822,3.922,9.969,9.51,11.257    c0.078,0.019,0.16,0.033,0.24,0.051h-0.002c0,0,0.016,0.003,0.041,0.008c0.215,0.043,0.43,0.083,0.646,0.116    c0.072,0.006,0.146,0.012,0.217,0.019c0.002,0,0.004,0,0.006,0c0.271,0.05,0.596,0.087,0.938,0.114    c1.094,0.116,2.486,0.199,3.648,0.062c0.008,0,0.012-0.002,0.018-0.003c0.059-0.001,0.119-0.001,0.178-0.005    c5.77-0.3,10.148-3.938,11.426-9.519c0.701-3.061,0.701-6.137,0.023-9.2C182.438,47.721,179.522,44.628,174.731,43.346z     M175.099,60.172c-0.029,0.181-0.059,0.36-0.1,0.538c-0.578,2.568-2.443,3.958-4.93,3.842c-2.674-0.122-4.508-1.685-4.766-4.357    c-0.186-1.952-0.201-3.945-0.039-5.898c0.254-3.083,2.182-4.769,5.074-4.712c2.377,0.046,4.07,1.393,4.674,3.678    C175.56,55.562,175.153,59.649,175.099,60.172z"/>
		<path fill-rule="evenodd" clip-rule="evenodd" fill="#FFFFFF" d="M44.054,43.202h-6.213V39.07    c0.454-3.906,6.906-3.164,6.906-3.164l0.002-0.267l-0.002-0.03v-6.416h-0.001v-0.001h-0.005    c-0.222-0.053-12.834-3.046-15.339,6.553c0,0.002,0,0.005-0.003,0.007c-0.005,0.021-0.011,0.042-0.016,0.063    c-0.394,1.2-0.367,6.696-0.362,7.387h-5.385v7.349h5.719v19.99h8.328v-19.99h6.37l0.717-7.349H44.054z"/>
		<path fill-rule="evenodd" clip-rule="evenodd" fill="#FFFFFF" d="M63.915,46.718c-0.102-0.113-0.203-0.222-0.29-0.313v-0.001    c-0.014-0.014-0.025-0.026-0.039-0.04c-0.121-0.126-0.206-0.21-0.206-0.21l0,0c-1.961-1.994-2.701-2.49-4.237-2.943    c-5.907-1.74-11.658,1.353-13.479,7.296c-1.119,3.652-1.135,7.411-0.479,11.109c1.417,8.009,7.374,10.691,13.723,9.369    c1.948-0.406,3.396-1.619,4.739-3.308c0,0,0.121-0.148,0.269-0.436v3.524h8.124V43.233h-8.124V46.718z M63.2,60.573    c-0.272,2.546-2.332,4.075-4.767,3.979c-2.495-0.097-4.146-1.433-4.685-3.827c-0.646-3.406,0.11-7.453,0.174-7.781    c0.652-2.286,2.315-3.417,4.755-3.36c2.396,0.054,4.243,1.472,4.513,3.954C63.443,55.86,63.449,58.25,63.2,60.573z"/>
		<path fill-rule="evenodd" clip-rule="evenodd" fill="#FFFFFF" d="M96.852,68.792c-0.377-1.379-0.806-2.739-1.221-4.053    l-0.392-1.461c0,0-10.182,4.888-11.77-4.4c-0.147-1.533-0.102-3.115,0.109-4.628c0.396-2.855,2.138-4.384,4.909-4.646    c0.936-0.089,1.91-0.044,2.837,0.113c1.262,0.213,2.494,0.593,3.875,0.934c0.48-1.469,0.971-2.922,1.428-4.385    c0.072-0.229,0.132-0.427,0.179-0.604l0.001,0l0.229-0.879c-0.057-0.117-0.196-0.238-0.382-0.356c0,0,0,0,0,0.001    c-0.234-0.196-0.633-0.359-1.256-0.587c-0.249-0.091-0.499-0.172-0.749-0.25c-0.224-0.071-0.37-0.113-0.37-0.113h0.001    c-2.675-0.765-5.421-0.824-8.211-0.53c-5.88,0.621-9.871,4.091-10.978,9.819c-0.581,3.014-0.554,6.065,0.113,9.088    c0.999,4.527,3.743,7.452,8.204,8.76c2.911,0.853,5.894,0.896,8.862,0.433c1.248-0.195,3.038-0.842,4.323-1.303l0.489-0.172    l-0.231-0.783L96.852,68.792z"/>
		<path fill-rule="evenodd" clip-rule="evenodd" fill="#FFFFFF" d="M123.657,58.021c-0.039-1.906-0.013-3.821-0.283-5.694    c-0.743-5.136-3.87-8.386-8.927-9.235c-1.93-0.323-3.971-0.28-5.932-0.093c-5.367,0.512-9.441,3.855-10.276,8.886    c-0.507,3.052-0.572,6.291-0.162,9.356c0.619,4.611,2.864,7.548,6.748,8.958c0.001,0,0.001,0,0.002,0    c0.017,0.001,0.034,0.004,0.051,0.006c-0.002,0.002-0.001,0.002-0.002,0.003c1.773,0.53,10.45,2.799,18.099-1.044l-0.307-1.126    c-0.003,0.002-0.008,0.002-0.011,0.002c-0.354-1.502-0.78-2.988-1.181-4.477l-0.043-0.146c0,0-0.159,0.057-0.441,0.147    c-0.006,0.001-0.014,0.001-0.02,0.002c-0.334,0.087-0.664,0.189-0.992,0.299c-0.061,0.02-0.121,0.039-0.182,0.057    c-1.158,0.326-2.813,0.728-4.561,0.953c-1.467,0.148-2.949,0.154-4.445,0.026c-2.429-0.402-4.288-1.703-4.199-4.779h1.388    c4.762,0,9.523,0,14.286-0.001c0.113,0,0.228,0.001,0.341-0.001l-0.001,0.002c0,0,1.023-0.013,1.066-0.023c0,0-0.001-0.27,0-0.303    L123.657,58.021z M115.827,54.267h-9.406c0.049-1.871,0.283-3.61,1.946-4.669c1.766-1.122,3.717-1.164,5.533-0.158    C115.736,50.454,115.88,52.286,115.827,54.267z"/>
		<polygon fill-rule="evenodd" clip-rule="evenodd" fill="#FFFFFF" points="242.362,43.52 233.128,43.52 225.108,56.058     225.108,29.896 225.108,29.724 225.108,28.669 216.403,29.724 216.403,70.765 225.108,70.765 225.108,58.205 233.128,70.783     242.362,70.783 233.659,57.129   "/>
		<path fill-rule="evenodd" clip-rule="evenodd" fill="#FFFFFF" d="M204.421,43.342c-3.025-0.81-6.082-0.8-9.1,0.004    c-4.518,1.204-7.547,4.063-8.523,8.611c-0.533,2.483-0.639,5.121-0.498,7.667c0.32,5.822,3.922,9.97,9.508,11.257    c0.08,0.019,0.162,0.033,0.242,0.051h-0.002c0,0,0.014,0.003,0.039,0.008c0.215,0.043,0.432,0.083,0.648,0.115    c0.072,0.007,0.145,0.014,0.217,0.018c0.002,0.002,0.004,0.002,0.006,0.002c0.273,0.05,0.596,0.088,0.936,0.115    c1.096,0.116,2.49,0.199,3.65,0.062c0.006-0.002,0.01-0.002,0.018-0.004c0.061-0.001,0.119-0.001,0.176-0.004    c5.771-0.301,10.15-3.94,11.428-9.519c0.701-3.061,0.701-6.138,0.025-9.201C212.126,47.716,209.212,44.623,204.421,43.342z     M204.788,60.167c-0.029,0.182-0.059,0.36-0.1,0.539c-0.58,2.568-2.443,3.956-4.93,3.842c-2.674-0.125-4.508-1.687-4.766-4.358    c-0.186-1.951-0.203-3.944-0.041-5.897c0.258-3.084,2.184-4.77,5.078-4.713c2.373,0.046,4.068,1.393,4.672,3.678    C205.247,55.556,204.843,59.645,204.788,60.167z"/>
	</g>
</g>
</svg>