<?xml version="1.0" encoding="UTF-8" standalone="no"?>
<svg xmlns:dc="http://purl.org/dc/elements/1.1/" xmlns:cc="http://creativecommons.org/ns#" xmlns:rdf="http://www.w3.org/1999/02/22-rdf-syntax-ns#" xmlns:svg="http://www.w3.org/2000/svg" xmlns="http://www.w3.org/2000/svg" version="1.1" id="svg5085" viewBox="0 0 1000 417.29777" height="417.29776" width="1000">
  <defs id="defs5087"/>
  <metadata id="metadata5090">
    <rdf:RDF>
      <cc:Work rdf:about="">
        <dc:format>image/svg+xml</dc:format>
        <dc:type rdf:resource="http://purl.org/dc/dcmitype/StillImage"/>
        <dc:title/>
      </cc:Work>
    </rdf:RDF>
  </metadata>
  <g transform="translate(2.8571318,-472.28474)" id="layer1">
    <g transform="matrix(6.6666311,0,0,-6.6666311,991.18288,562.31093)" id="g4108">
      <path id="path4110" style="fill:#cd201f;fill-opacity:1;fill-rule:nonzero;stroke:none" d="m 0,0 c 0,0 -0.873,6.133 -3.554,8.834 -3.399,3.544 -7.21,3.562 -8.957,3.77 -12.51,0.9 -31.276,0.9 -31.276,0.9 l -0.039,0 c 0,0 -18.766,0 -31.276,-0.9 -1.748,-0.208 -5.557,-0.226 -8.958,-3.77 C -86.74,6.133 -87.612,0 -87.612,0 c 0,0 -0.895,-7.201 -0.895,-14.403 l 0,-6.752 c 0,-7.202 0.895,-14.404 0.895,-14.404 0,0 0.872,-6.132 3.552,-8.834 3.401,-3.545 7.869,-3.432 9.858,-3.803 7.152,-0.684 30.395,-0.895 30.395,-0.895 0,0 18.786,0.028 31.296,0.928 1.747,0.208 5.558,0.225 8.957,3.77 2.681,2.702 3.554,8.834 3.554,8.834 0,0 0.894,7.202 0.894,14.404 l 0,6.752 C 0.894,-7.201 0,0 0,0"/>
    </g>
    <g transform="matrix(6.6666311,0,0,-6.6666311,370.37885,809.98562)" id="g4112">
      <path id="path4114" style="fill:#000000;fill-opacity:1;fill-rule:nonzero;stroke:none" d="m 0,0 -5.688,0 0,3.293 c -2.157,-2.472 -3.985,-3.72 -5.978,-3.72 -1.748,0 -2.963,0.824 -3.57,2.315 -0.369,0.906 -0.631,2.321 -0.631,4.399 l 0,23.951 5.687,0 0,-22.454 0,-2.096 c 0.133,-0.839 0.491,-1.147 1.213,-1.147 1.089,0 2.074,0.946 3.279,2.645 l 0,23.052 5.688,0 L 0,0 Z"/>
    </g>
    <g transform="matrix(6.6666311,0,0,-6.6666311,198.73246,750.10925)" id="g4116">
      <path id="path4118" style="fill:#000000;fill-opacity:1;fill-rule:nonzero;stroke:none" d="m 0,0 c 0.299,-2.994 -0.63,-4.479 -2.396,-4.479 -1.766,0 -2.694,1.485 -2.394,4.479 l 0,11.976 c -0.3,2.994 0.628,4.397 2.394,4.397 1.767,0 2.698,-1.403 2.399,-4.397 L 0,0 Z m 5.688,11.377 c 0,3.231 -0.649,5.658 -1.796,7.185 -1.516,2.069 -3.892,2.916 -6.288,2.916 -2.71,0 -4.774,-0.847 -6.287,-2.916 -1.166,-1.527 -1.791,-3.98 -1.791,-7.211 L -10.479,0.599 c 0,-3.213 0.556,-5.433 1.721,-6.946 1.514,-2.062 3.968,-3.154 6.362,-3.154 2.396,0 4.892,1.092 6.408,3.154 1.147,1.513 1.676,3.733 1.676,6.946 l 0,10.778 z"/>
    </g>
    <g transform="matrix(6.6666311,0,0,-6.6666311,86.962389,700.20754)" id="g4120">
      <path id="path4122" style="fill:#000000;fill-opacity:1;fill-rule:nonzero;stroke:none" d="m 0,0 0,-16.467 -5.988,0 0,16.467 c 0,0 -6.205,20.187 -7.485,23.95 l 6.287,0 4.202,-15.77 4.181,15.77 6.287,0 L 0,0 Z"/>
    </g>
    <g transform="matrix(6.6666311,0,0,-6.6666311,875.34348,664.20507)" id="g4124">
      <path id="path4126" style="fill:#ffffff;fill-opacity:1;fill-rule:nonzero;stroke:none" d="m 0,0 c 0,2.799 0.767,3.562 2.577,3.562 1.797,0 2.512,-0.833 2.512,-3.599 l 0,-3.268 L 0,-3.311 0,0 Z m 10.788,-7.796 -10e-4,6.12 c 0,3.197 -0.63,5.537 -1.764,7.05 C 7.505,7.421 5.347,8.505 2.628,8.505 -0.14,8.505 -2.298,7.421 -3.865,5.374 -5.017,3.861 -5.688,1.39 -5.688,-1.809 l 0,-10.478 c 0,-3.179 0.738,-5.404 1.889,-6.901 1.568,-2.044 3.726,-3.065 6.561,-3.065 2.832,0 5.056,1.07 6.555,3.243 0.66,0.959 1.085,2.046 1.268,3.247 0.049,0.543 0.192,1.78 0.192,3.526 l 0,0.848 -5.688,0 c 0,-2.174 0.011,-3.467 -0.04,-3.762 -0.31,-1.45 -1.087,-2.175 -2.421,-2.175 -1.861,0 -2.648,1.391 -2.628,4.153 l 0,5.377 10.788,0 z"/>
    </g>
    <g transform="matrix(6.6666311,0,0,-6.6666311,775.54598,752.10124)" id="g4128">
      <path id="path4130" style="fill:#ffffff;fill-opacity:1;fill-rule:nonzero;stroke:none" d="m 0,0 c 0,-2.994 -0.706,-4.142 -2.269,-4.142 -0.892,0 -1.92,0.459 -2.827,1.366 l 0.006,18.157 c 0.906,0.894 1.929,1.365 2.821,1.365 C -0.706,16.746 0,15.867 0,12.873 L 0,0 Z m 0.631,21.736 c -1.994,0 -3.976,-1.226 -5.727,-3.381 l 0.006,13.081 -5.389,0 0,-40.119 5.389,0 0.008,3.015 c 1.811,-2.241 3.786,-3.4 5.713,-3.4 2.158,0 3.735,1.155 4.459,3.38 0.361,1.268 0.598,3.22 0.598,5.987 l 0,11.975 c 0,2.834 -0.363,4.772 -0.725,5.975 -0.723,2.24 -2.174,3.487 -4.332,3.487"/>
    </g>
    <g transform="matrix(6.6666311,0,0,-6.6666311,675.74858,809.98562)" id="g4132">
      <path id="path4134" style="fill:#ffffff;fill-opacity:1;fill-rule:nonzero;stroke:none" d="m 0,0 -5.687,0 0,3.293 c -2.158,-2.472 -3.985,-3.72 -5.978,-3.72 -1.748,0 -2.963,0.824 -3.57,2.315 -0.37,0.906 -0.632,2.321 -0.632,4.399 l 0,23.651 5.688,0 0,-22.154 0,-2.096 c 0.133,-0.839 0.49,-1.147 1.213,-1.147 1.089,0 2.074,0.946 3.279,2.645 l 0,22.752 5.687,0 L 0,0 Z"/>
    </g>
    <g transform="matrix(6.6666311,0,0,-6.6666311,532.04466,809.98562)" id="g4136">
      <path id="path4138" style="fill:#ffffff;fill-opacity:1;fill-rule:nonzero;stroke:none" d="m 0,0 -5.987,0 0,34.43 -6.287,0 0,5.681 18.861,0.007 0,-5.688 L 0,34.43 0,0 Z"/>
    </g>
  </g>
</svg>